<svg xmlns="http://www.w3.org/2000/svg" width="353.87" height="194.15" viewBox="0 0 353.87 194.15">
  <g id="Group_230" data-name="Group 230" transform="translate(-2165.065 -128.027)">
    <g id="Group_221" data-name="Group 221" transform="translate(2090.065 7.358)">
      <path id="Path_7" data-name="Path 7" d="M785.685,451.066l82.8-3.376.285,7.652Z" transform="translate(-710.685 -217.504)" fill="#2594ed"/>
      <path id="Path_10" data-name="Path 10" d="M785.685,451.066l82.8-3.376.285,7.652Z" transform="translate(-710.685 -187.414)" fill="#2594ed"/>
      <path id="Path_12" data-name="Path 12" d="M785.685,451.066l56.1-3.376.193,7.652Z" transform="translate(-415.106 -182.414)" fill="#d0181f"/>
      <path id="Path_8" data-name="Path 8" d="M785.685,451.066l82.8-3.376.285,7.652Z" transform="translate(-710.685 -202.459)" fill="#2594ed"/>
      <g id="Group_1" data-name="Group 1" transform="translate(56.879 -76.102)">
        <text id="dms" transform="translate(106.121 350.102)" fill="#d0181f" font-size="78" font-family="OpenSans-Extrabold, Open Sans" font-weight="800"><tspan x="0" y="0">dms</tspan></text>
        <text id="papa" transform="translate(18.121 276.102)" fill="#2594ed" font-size="78" font-family="CenturyGothic, Century Gothic"><tspan x="0" y="0">papa</tspan></text>
        <path id="Path_11" data-name="Path 11" d="M511.921,466.441a76.447,76.447,0,0,0-13.277-31.513,70.688,70.688,0,0,0-7.994-9.333v-.486l-.462.033a78.362,78.362,0,0,0-51.6-22.266L393.809,401.4l-.686-14.034-.6-12.334c-.133-2.21-.129-3.773-.372-6.512a32.36,32.36,0,0,0-1.529-7.613,33.165,33.165,0,0,0-20.542-21.056,35.3,35.3,0,0,0-14.192-1.686l-12.334.576-98.67,4.588,98.67,3.588,12.334.572a23.986,23.986,0,0,1,10.009,2.044,20.657,20.657,0,0,1,10.933,12.134l4.241,55.445c14.892-.429,87.517-.189,99.922,8.643l5.506,4.023,4.156,4.614v-.262c1.267,1.334,2.558,2.639,3.716,4.087a73.735,73.735,0,0,1,5.083,7.051l-66.709,4.307,34.715,2.244,36.772,2.377a70.565,70.565,0,0,1,4.554,12.877c2.42,10.624,2.2,27.157,3.139,38.3C512.406,494.25,513.94,477.827,511.921,466.441Z" transform="translate(-140.945 -126.012)" fill="#d0181f"/>
        <path id="Path_13" data-name="Path 13" d="M11-7.331,0,0V11H11Z" transform="translate(200.056 204.102)" fill="#d0181f"/>
        <path id="Dispatch_Management_System" data-name="Dispatch Management System" d="M18.743,18.595q0,4.543-2.552,6.966T8.817,28.03l-5.23.045V9.637l5.779-.016q4.448-.012,6.914,2.343T18.743,18.595Zm-3.2.118q0-3.3-1.563-4.942T9.289,12.139l-2.644.009V25.516L8.817,25.5q3.365-.026,5.046-1.722T15.543,18.713Zm9.833,9.175-2.971.026V14.049l2.971-.012ZM22.228,10.376q0-.79.437-1.217T23.91,8.73q.784,0,1.22.423t.436,1.214q0,.751-.436,1.185t-1.22.436q-.809,0-1.246-.428T22.228,10.376ZM38.947,23.843q0,2.02-1.478,3.111T33.226,28.07q-2.78.024-4.468-.8v-2.54q2.456,1.106,4.569,1.09,2.725-.022,2.725-1.657,0-.524-.3-.871t-.992-.717q-.691-.37-1.922-.836-2.4-.909-3.253-1.829t-.851-2.4q0-1.776,1.443-2.765t3.918-1q2.448-.01,4.628.966l-.952,2.212q-2.245-.912-3.777-.9-2.338.011-2.338,1.336,0,.65.61,1.1t2.658,1.221q1.719.651,2.5,1.2t1.153,1.258Q38.947,22.846,38.947,23.843Zm10.172,4.089q-2.615.023-4.061-1.844h-.175q.175,1.741.175,2.114v5.637l-2.934.031V13.967l2.373-.01q.1.385.412,1.84h.15q1.371-2.1,4.111-2.107,2.573-.01,4.007,1.845t1.432,5.216q0,3.362-1.457,5.26T49.119,27.932ZM48.41,16.079q-1.743.008-2.547,1.032t-.8,3.265v.436q0,2.514.8,3.634t2.6,1.105q1.518-.012,2.338-1.261t.82-3.545q0-2.31-.814-3.491T48.41,16.079ZM66.524,27.534l-.578-1.9h-.1q-.985,1.257-1.983,1.717t-2.565.474q-2.013.017-3.144-1.063t-1.132-3.077q0-2.12,1.571-3.208t4.778-1.205l2.352-.088v-.729q0-1.31-.609-1.956t-1.891-.64q-1.048.005-2.011.319t-1.853.74l-.94-2.077q1.113-.587,2.434-.9t2.492-.313q2.6-.011,3.921,1.121t1.321,3.563v9.2Zm-4.311-1.943q1.578-.013,2.533-.9T65.7,22.2V21.014l-1.749.086q-2.047.088-2.978.706t-.932,1.882q0,.916.543,1.414T62.213,25.591Zm15.44-.246q1.05-.008,2.1-.349v2.178q-.476.213-1.226.361t-1.557.155q-4.086.035-4.086-4.306v-7.35l-1.851.009V14.761l1.986-1.069L74,10.8l1.774-.006v3.031l3.847-.016V16l-3.847.019v7.294q0,1.047.52,1.542T77.652,25.345ZM87.864,27.6q-3.048.026-4.635-1.76t-1.589-5.158q0-3.431,1.662-5.283t4.792-1.863q2.121-.009,3.816.781l-.859,2.321q-1.8-.7-2.981-.7-3.485.017-3.485,4.7,0,2.285.869,3.427T88,25.19q1.9-.015,3.6-.984v2.513q-.763.46-1.628.664T87.864,27.6Zm18.58-.4-2.831.024v-8.3q0-1.563-.618-2.329t-1.965-.76q-1.781.009-2.618,1.1t-.838,3.632v6.716l-2.835.024V8.239l2.835-.007v4.832q0,1.162-.145,2.484h.181q.578-.981,1.608-1.524t2.4-.548q4.825-.02,4.825,4.921Zm18.059-.155L119.474,12.25h-.1q.2,3.3.2,6.193v8.635L117,27.1V9.33l4.005-.011L125.816,23.4h.071l4.937-14.109,3.98-.011V26.948l-2.707.023V18.227q0-1.318.065-3.435t.112-2.564h-.094L127,27.015Zm22.624-.194-.548-1.849h-.093q-.934,1.224-1.88,1.671t-2.432.461q-1.909.017-2.981-1.036t-1.073-3q0-2.064,1.49-3.124t4.53-1.173l2.231-.085V18q0-1.276-.578-1.905T144,15.473q-.994,0-1.906.31t-1.757.72l-.891-2.022q1.055-.572,2.308-.872t2.363-.3q2.464-.01,3.718,1.092t1.253,3.47v8.96Zm-4.088-1.893q1.5-.012,2.4-.88t.9-2.42V20.493l-1.658.083q-1.941.085-2.824.687t-.884,1.833q0,.892.515,1.377T143.038,24.949ZM164.164,26.7l-2.724.023V18.575q0-1.533-.6-2.285t-1.891-.746q-1.725.008-2.525,1.068t-.8,3.544v6.612l-2.728.023V13.508l2.136-.009.383,1.739h.139q.58-.951,1.646-1.471t2.362-.525q4.6-.019,4.6,4.828Zm11.705-.1-.538-1.831h-.092q-.916,1.212-1.844,1.655t-2.386.456q-1.872.016-2.924-1.026t-1.053-2.968q0-2.044,1.461-3.093t4.443-1.161l2.188-.084v-.7q0-1.264-.567-1.887t-1.759-.618q-.975,0-1.87.307t-1.723.713l-.874-2q1.035-.566,2.264-.864t2.318-.3q2.417-.01,3.647,1.081t1.229,3.437v8.874Zm-4.01-1.875q1.468-.012,2.356-.871t.887-2.4V20.307l-1.626.082q-1.9.084-2.77.681t-.867,1.815q0,.884.505,1.364T171.859,24.72Zm20.282-11.375v1.529L190,15.3q.295.414.487,1.018t.193,1.28q0,2.028-1.337,3.2t-3.689,1.189q-.6,0-1.092-.087-.865.565-.865,1.314,0,.452.4.674t1.484.214l2.192-.017q2.076-.016,3.152.9t1.076,2.658q0,2.229-1.755,3.456t-5.085,1.264q-2.572.027-3.928-.91t-1.357-2.7q0-1.214.736-2.048t2.057-1.165q-.535-.233-.883-.76t-.348-1.11q0-.738.4-1.252t1.185-1.019q-.98-.433-1.589-1.423t-.61-2.322q0-2.142,1.294-3.326t3.681-1.192q.534,0,1.119.073t.88.157Zm-9.867,15.24q0,.9.78,1.384t2.19.466q2.181-.022,3.248-.685t1.066-1.742q0-.854-.584-1.211t-2.173-.343l-2.023.017q-1.149.01-1.827.58T182.275,28.586Zm1.15-10.948q0,1.236.609,1.9t1.746.654q2.317-.015,2.317-2.6,0-1.282-.573-1.974t-1.744-.686q-1.16.005-1.757.7T183.425,17.638Zm16.482,8.988q-2.907.025-4.549-1.743t-1.644-4.9q0-3.211,1.525-5.054t4.184-1.852q2.464-.01,3.891,1.555t1.426,4.313v1.5l-8.293.055q.056,1.905.981,2.922t2.6,1q1.1-.009,2.053-.235t2.039-.742V25.7q-.966.492-1.954.7T199.907,26.626Zm-.484-11.442q-1.262.006-2.023.85t-.908,2.455l5.653-.033q-.022-1.618-.742-2.448T199.423,15.184Zm18.709,11.049-2.626.023v-8.02q0-1.493-.535-2.226t-1.672-.727q-1.518.007-2.227,1.053t-.71,3.473V26.3l-2.629.023V13.281l2.059-.009.369,1.707h.134q.514-.933,1.491-1.444t2.148-.515q2.841-.012,3.764,2.029h.178q.545-.966,1.534-1.511t2.264-.549q2.194-.009,3.2,1.159t1,3.57v8.449l-2.6.022v-8q0-1.49-.537-2.22t-1.669-.725q-1.521.007-2.226,1.015t-.706,3.088Zm16.682.09q-2.839.025-4.442-1.722t-1.605-4.839q0-3.172,1.489-4.994t4.085-1.83q2.406-.01,3.8,1.537t1.392,4.262v1.481l-8.1.053q.055,1.883.958,2.887t2.541.991q1.077-.009,2-.232t1.991-.733v2.228q-.943.486-1.908.693T234.813,26.323Zm-.473-11.306q-1.232.006-1.975.84t-.887,2.425L237,18.25q-.022-1.6-.725-2.419T234.34,15.017Zm18.714,10.916-2.564.022v-7.9q0-1.487-.56-2.216t-1.78-.724q-1.624.008-2.376,1.036t-.753,3.438V26l-2.567.022V13.137l2.01-.008.36,1.687h.131q.546-.922,1.549-1.427t2.223-.509q4.326-.018,4.326,4.684Zm8-2.037q.928-.007,1.855-.327v2.048q-.42.2-1.084.339t-1.376.145q-3.611.031-3.611-4.05v-6.91l-1.636.008V13.943l1.755-1,.866-2.716,1.568,0v2.85l3.4-.014v2.059l-3.4.017v6.857q0,.985.459,1.45T261.053,23.9Zm19.225-2.762q0,2.242-1.5,3.531t-4.154,1.313q-2.654.023-4.348-.851V22.519q1.072.534,2.277.836t2.242.294q1.517-.012,2.238-.639t.72-1.674q0-.944-.662-1.6T274.355,18.2q-2.141-.921-3.019-2.116t-.879-2.88q0-2.112,1.393-3.327t3.734-1.221q2.242-.006,4.46,1.046l-.81,2.246q-2.08-.936-3.714-.93-1.24,0-1.882.589T273,13.149q0,.657.257,1.123t.845.878q.588.412,2.116,1.084,1.719.762,2.519,1.425t1.172,1.5Q280.279,20,280.279,21.134Zm.958-8.157,2.722-.011,2.388,7.185q.541,1.534.721,2.886h.085q.1-.632.35-1.534t2.689-8.562l2.684-.011-5,14.391q-1.367,3.971-4.563,4.005-.829.009-1.616-.178V29.009q.564.132,1.287.125,1.806-.018,2.539-2.286l.435-1.2Zm21.225,8.938q0,1.848-1.238,2.846t-3.552,1.018q-2.327.02-3.74-.734V22.721q2.056,1.014,3.824,1,2.281-.018,2.281-1.514,0-.48-.252-.8t-.83-.657q-.578-.339-1.609-.766-2.012-.833-2.723-1.675t-.712-2.193q0-1.625,1.207-2.529t3.28-.911q2.049-.008,3.875.886l-.8,2.024q-1.88-.836-3.162-.83-1.957.009-1.957,1.221,0,.595.511,1t2.225,1.119q1.439.6,2.09,1.095t.965,1.152Q302.461,21,302.461,21.915Zm6.967,1.6q.9-.007,1.794-.321v2.013q-.406.2-1.048.333t-1.33.142q-3.491.03-3.491-3.982V14.906l-1.581.008V13.727l1.7-.988.837-2.67,1.516,0v2.8l3.287-.014v2.025l-3.287.016v6.742q0,.968.444,1.426T309.428,23.514ZM318.54,25.6q-2.677.023-4.19-1.674t-1.514-4.7q0-3.081,1.4-4.85t3.853-1.777q2.27-.009,3.584,1.493t1.313,4.14v1.439l-7.638.05q.052,1.828.9,2.8t2.4.963q1.016-.008,1.891-.225t1.878-.712v2.164q-.889.472-1.8.673T318.54,25.6Zm-.446-10.981q-1.162.006-1.863.815t-.836,2.355l5.207-.031q-.021-1.553-.683-2.349T318.094,14.617Zm17.235,10.61-2.42.021v-7.7q0-1.434-.493-2.137t-1.541-.7q-1.4.007-2.052,1.01t-.654,3.333v6.23l-2.422.021V12.792l1.9-.008.34,1.638h.124q.474-.9,1.374-1.385t1.979-.494q2.617-.011,3.468,1.949h.164q.5-.927,1.413-1.45t2.087-.527q2.022-.008,2.946,1.113t.923,3.427v8.111l-2.4.021V17.507q0-1.43-.5-2.131t-1.538-.7q-1.4.007-2.052.974t-.65,2.964Z" transform="translate(18.948 354.947)" fill="#747474"/>
      </g>
    </g>
  </g>
</svg>
